# xmcd
#
# Track frame offsets: 
#        150
#        18105
#        30128
#        47017
#        57172
#        71003
#        82684
#        94404
#        104156
#        120738
#        133524
#        145134
#        159485
#        171548
#        182120
#        199291
#        215586
#
# Disc length: 3052 seconds
#
# Revision: 0
# Processed by: cddbd v1.5.2PL0 Copyright (c) Steve Scherf et al.
# Submitted via: ExactAudioCopyFreeDBPlugin 1.0
#
DISCID=ef0bea11
DTITLE=Various Artist - Deep In The Heart - Big Songs for Little Texa
DTITLE=ns Everywhere!
DYEAR=2012
DGENRE=Country
TTITLE0=Reckless Kelly - I've Been Working on the Railroad
TTITLE1=Pat Green - Big Rock Candy Mountain
TTITLE2=Cory Morrow - This Little Light of Mine
TTITLE3=Stoney LaRue - Oh! Susanna
TTITLE4=Ray Benson and Asleep At the Wheel - Riding In the Car
TTITLE5=Aaron Watson (w/Elizabeth McQueen) - Blue Skies
TTITLE6=Walt and Tina Wilkins - Buffalo Gals
TTITLE7=Cody and Dierks Canada - You've Got A Friend In Me
TTITLE8=Bonnie Bishop (w/Ray Benson) - Don't You Just Know It
TTITLE9=Jack Ingram - You Are My Sunshine
TTITLE10=Jason Boland - This Land Is Your Land
TTITLE11=Fred Andrews (w/Jess Klein) - Keep On the Sunny Side of Life
TTITLE12=Josh Abbott - She'll Be Coming 'Round the Mountain
TTITLE13=Randy Rogers Band - Mister Sun
TTITLE14=Drew Womack (w/Sunny and Jordan Shipley) - I'll Fly Away
TTITLE15=Charla Corn - Rainbow Connection
TTITLE16=Colt McCoy and Friends - Deep In the Heart of Texas
EXTD=
EXTT0=
EXTT1=
EXTT2=
EXTT3=
EXTT4=
EXTT5=
EXTT6=
EXTT7=
EXTT8=
EXTT9=
EXTT10=
EXTT11=
EXTT12=
EXTT13=
EXTT14=
EXTT15=
EXTT16=
PLAYORDER=
